<mxfile host="app.diagrams.net" modified="2023-08-14T12:40:08.125Z" agent="Mozilla/5.0 (Windows NT 10.0; Win64; x64) AppleWebKit/537.36 (KHTML, like Gecko) Chrome/115.0.0.0 Safari/537.36" etag="cHlsiEXbsezT3ePt2a1s" version="21.6.8" type="device">
  <diagram name="Страница — 1" id="vsTrrQmGwUnHXgzSRak4">
    <mxGraphModel dx="1877" dy="1743" grid="1" gridSize="10" guides="1" tooltips="1" connect="1" arrows="1" fold="1" page="1" pageScale="1" pageWidth="827" pageHeight="1169" math="0" shadow="0">
      <root>
        <mxCell id="0" />
        <mxCell id="1" parent="0" />
        <mxCell id="gSUzF8qb2UPVt2BM572L-1" value="" style="rounded=0;whiteSpace=wrap;html=1;fillColor=#E6E6E6;fontColor=#ffffff;strokeColor=#314354;" vertex="1" parent="1">
          <mxGeometry x="120" y="190" width="760" height="270" as="geometry" />
        </mxCell>
        <mxCell id="gSUzF8qb2UPVt2BM572L-2" value="" style="rounded=0;whiteSpace=wrap;html=1;fillColor=#66FF66;strokeColor=#3A5431;fontColor=#ffffff;" vertex="1" parent="1">
          <mxGeometry x="120" y="-180" width="760" height="310" as="geometry" />
        </mxCell>
        <mxCell id="gSUzF8qb2UPVt2BM572L-3" value="Aplication" style="text;strokeColor=none;fillColor=none;html=1;fontSize=24;fontStyle=1;verticalAlign=middle;align=center;" vertex="1" parent="1">
          <mxGeometry x="-40" y="-180" width="190" height="40" as="geometry" />
        </mxCell>
        <mxCell id="gSUzF8qb2UPVt2BM572L-4" value="Driver" style="text;strokeColor=none;fillColor=none;html=1;fontSize=24;fontStyle=1;verticalAlign=middle;align=center;" vertex="1" parent="1">
          <mxGeometry x="-20" y="180" width="190" height="40" as="geometry" />
        </mxCell>
        <mxCell id="gSUzF8qb2UPVt2BM572L-5" value="decision making" style="shape=ext;double=1;rounded=0;whiteSpace=wrap;html=1;" vertex="1" parent="1">
          <mxGeometry x="385" y="-150" width="130" height="70" as="geometry" />
        </mxCell>
        <mxCell id="gSUzF8qb2UPVt2BM572L-36" style="edgeStyle=orthogonalEdgeStyle;rounded=0;orthogonalLoop=1;jettySize=auto;html=1;entryX=0;entryY=0.5;entryDx=0;entryDy=0;exitX=0.5;exitY=0;exitDx=0;exitDy=0;" edge="1" parent="1" source="gSUzF8qb2UPVt2BM572L-8" target="gSUzF8qb2UPVt2BM572L-5">
          <mxGeometry relative="1" as="geometry" />
        </mxCell>
        <mxCell id="gSUzF8qb2UPVt2BM572L-8" value="Receive from peripheral devices" style="shape=ext;double=1;rounded=0;whiteSpace=wrap;html=1;" vertex="1" parent="1">
          <mxGeometry x="130" y="60" width="120" height="40" as="geometry" />
        </mxCell>
        <mxCell id="gSUzF8qb2UPVt2BM572L-9" value="Receive/Transmit" style="shape=ext;double=1;rounded=0;whiteSpace=wrap;html=1;" vertex="1" parent="1">
          <mxGeometry x="390" y="60" width="120" height="40" as="geometry" />
        </mxCell>
        <mxCell id="gSUzF8qb2UPVt2BM572L-28" style="edgeStyle=orthogonalEdgeStyle;rounded=0;orthogonalLoop=1;jettySize=auto;html=1;entryX=0.5;entryY=1;entryDx=0;entryDy=0;startArrow=classic;startFill=1;" edge="1" parent="1" source="gSUzF8qb2UPVt2BM572L-11" target="gSUzF8qb2UPVt2BM572L-5">
          <mxGeometry relative="1" as="geometry" />
        </mxCell>
        <mxCell id="gSUzF8qb2UPVt2BM572L-11" value="Arbitr" style="shape=ext;double=1;rounded=0;whiteSpace=wrap;html=1;" vertex="1" parent="1">
          <mxGeometry x="390" y="-10" width="120" height="40" as="geometry" />
        </mxCell>
        <mxCell id="gSUzF8qb2UPVt2BM572L-12" value="Indication of condition" style="shape=ext;double=1;rounded=0;whiteSpace=wrap;html=1;" vertex="1" parent="1">
          <mxGeometry x="707" y="60" width="120" height="40" as="geometry" />
        </mxCell>
        <mxCell id="gSUzF8qb2UPVt2BM572L-14" value="&lt;div&gt;CAN FD&lt;/div&gt;" style="shape=ext;double=1;rounded=0;whiteSpace=wrap;html=1;" vertex="1" parent="1">
          <mxGeometry x="390" y="210" width="120" height="70" as="geometry" />
        </mxCell>
        <mxCell id="gSUzF8qb2UPVt2BM572L-17" value="&lt;ul&gt;&lt;li&gt;LED&lt;/li&gt;&lt;li&gt;UART&lt;/li&gt;&lt;/ul&gt;" style="shape=ext;double=1;rounded=0;whiteSpace=wrap;html=1;" vertex="1" parent="1">
          <mxGeometry x="707" y="210" width="120" height="70" as="geometry" />
        </mxCell>
        <mxCell id="gSUzF8qb2UPVt2BM572L-19" value="" style="endArrow=classic;startArrow=classic;html=1;rounded=0;exitX=0.5;exitY=0;exitDx=0;exitDy=0;entryX=0.5;entryY=1;entryDx=0;entryDy=0;" edge="1" parent="1" source="gSUzF8qb2UPVt2BM572L-14" target="gSUzF8qb2UPVt2BM572L-9">
          <mxGeometry width="50" height="50" relative="1" as="geometry">
            <mxPoint x="420" y="150" as="sourcePoint" />
            <mxPoint x="470" y="100" as="targetPoint" />
          </mxGeometry>
        </mxCell>
        <mxCell id="gSUzF8qb2UPVt2BM572L-20" value="" style="endArrow=classic;startArrow=classic;html=1;rounded=0;entryX=0.5;entryY=1;entryDx=0;entryDy=0;" edge="1" parent="1" target="gSUzF8qb2UPVt2BM572L-11">
          <mxGeometry width="50" height="50" relative="1" as="geometry">
            <mxPoint x="450" y="60" as="sourcePoint" />
            <mxPoint x="460" y="110" as="targetPoint" />
          </mxGeometry>
        </mxCell>
        <mxCell id="gSUzF8qb2UPVt2BM572L-21" value="" style="endArrow=classic;startArrow=classic;html=1;rounded=0;entryX=0.5;entryY=1;entryDx=0;entryDy=0;" edge="1" parent="1" source="gSUzF8qb2UPVt2BM572L-17" target="gSUzF8qb2UPVt2BM572L-12">
          <mxGeometry width="50" height="50" relative="1" as="geometry">
            <mxPoint x="750" y="260" as="sourcePoint" />
            <mxPoint x="800" y="210" as="targetPoint" />
          </mxGeometry>
        </mxCell>
        <mxCell id="gSUzF8qb2UPVt2BM572L-32" value="" style="edgeStyle=orthogonalEdgeStyle;rounded=0;orthogonalLoop=1;jettySize=auto;html=1;" edge="1" parent="1" source="gSUzF8qb2UPVt2BM572L-23" target="gSUzF8qb2UPVt2BM572L-31">
          <mxGeometry relative="1" as="geometry" />
        </mxCell>
        <mxCell id="gSUzF8qb2UPVt2BM572L-35" style="edgeStyle=orthogonalEdgeStyle;rounded=0;orthogonalLoop=1;jettySize=auto;html=1;entryX=1;entryY=0.5;entryDx=0;entryDy=0;exitX=0.5;exitY=0;exitDx=0;exitDy=0;startArrow=classic;startFill=1;" edge="1" parent="1" source="gSUzF8qb2UPVt2BM572L-23" target="gSUzF8qb2UPVt2BM572L-8">
          <mxGeometry relative="1" as="geometry" />
        </mxCell>
        <mxCell id="gSUzF8qb2UPVt2BM572L-23" value="&lt;div&gt;SPI&lt;/div&gt;" style="shape=ext;double=1;rounded=0;whiteSpace=wrap;html=1;" vertex="1" parent="1">
          <mxGeometry x="260" y="210" width="120" height="70" as="geometry" />
        </mxCell>
        <mxCell id="gSUzF8qb2UPVt2BM572L-24" value="" style="endArrow=classic;startArrow=classic;html=1;rounded=0;exitX=0.5;exitY=0;exitDx=0;exitDy=0;entryX=0.5;entryY=1;entryDx=0;entryDy=0;" edge="1" parent="1" target="gSUzF8qb2UPVt2BM572L-23">
          <mxGeometry width="50" height="50" relative="1" as="geometry">
            <mxPoint x="320" y="350" as="sourcePoint" />
            <mxPoint x="480" y="270" as="targetPoint" />
          </mxGeometry>
        </mxCell>
        <mxCell id="gSUzF8qb2UPVt2BM572L-34" style="edgeStyle=orthogonalEdgeStyle;rounded=0;orthogonalLoop=1;jettySize=auto;html=1;startArrow=classic;startFill=1;" edge="1" parent="1" source="gSUzF8qb2UPVt2BM572L-29" target="gSUzF8qb2UPVt2BM572L-8">
          <mxGeometry relative="1" as="geometry" />
        </mxCell>
        <mxCell id="gSUzF8qb2UPVt2BM572L-29" value="&lt;div&gt;SPI&lt;/div&gt;" style="shape=ext;double=1;rounded=0;whiteSpace=wrap;html=1;" vertex="1" parent="1">
          <mxGeometry x="130" y="210" width="120" height="70" as="geometry" />
        </mxCell>
        <mxCell id="gSUzF8qb2UPVt2BM572L-30" value="&lt;div&gt;Encoder&lt;/div&gt;" style="shape=ext;double=1;rounded=0;whiteSpace=wrap;html=1;" vertex="1" parent="1">
          <mxGeometry x="130" y="350" width="120" height="70" as="geometry" />
        </mxCell>
        <mxCell id="gSUzF8qb2UPVt2BM572L-31" value="Step motor driver" style="shape=ext;double=1;rounded=0;whiteSpace=wrap;html=1;" vertex="1" parent="1">
          <mxGeometry x="260" y="350" width="120" height="70" as="geometry" />
        </mxCell>
        <mxCell id="gSUzF8qb2UPVt2BM572L-33" value="" style="endArrow=classic;startArrow=classic;html=1;rounded=0;exitX=0.5;exitY=0;exitDx=0;exitDy=0;entryX=0.5;entryY=1;entryDx=0;entryDy=0;" edge="1" parent="1">
          <mxGeometry width="50" height="50" relative="1" as="geometry">
            <mxPoint x="189.5" y="350" as="sourcePoint" />
            <mxPoint x="189.5" y="280" as="targetPoint" />
          </mxGeometry>
        </mxCell>
      </root>
    </mxGraphModel>
  </diagram>
</mxfile>
